<svg width="144" height="24" viewBox="0 0 144 24" fill="none" xmlns="http://www.w3.org/2000/svg"><path d="m19.934 9.932-.9 4.198h3.462v3.407H18.3l-.982 4.634h-3.625l.981-4.634h-4.96L8.73 22.17H5.133l.981-4.634H2V14.13h4.85l.9-4.198H3.66V6.525h4.825L9.44 2h3.598l-.954 4.525h4.96L18 2h3.625l-.954 4.525h3.49v3.407zm-3.625 0h-4.961l-.9 4.198h4.961zm22.515 9.022h8.559v3.217H34.408v-2.944L42.912 6.36h-8.504V3.145h12.975v2.944zm21.184 3.408q-2.672 0-4.907-1.254a9.4 9.4 0 0 1-3.543-3.462q-1.31-2.235-1.309-5.043 0-2.78 1.309-4.988A9.33 9.33 0 0 1 55.1 4.126q2.235-1.254 4.907-1.254 2.698 0 4.906 1.254a9.14 9.14 0 0 1 3.516 3.49q1.308 2.207 1.309 4.987 0 2.808-1.309 5.043a9.2 9.2 0 0 1-3.516 3.462q-2.236 1.253-4.906 1.253m0-3.408q1.717 0 3.025-.763 1.309-.79 2.045-2.235t.736-3.353-.736-3.325q-.736-1.445-2.045-2.208t-3.025-.763-3.053.763q-1.308.764-2.045 2.208-.735 1.417-.735 3.325t.735 3.353 2.045 2.235q1.335.763 3.053.763m23.91-6.541q1.608.3 2.644 1.609a4.7 4.7 0 0 1 1.036 2.998q0 1.527-.763 2.699-.737 1.144-2.154 1.799-1.417.654-3.353.654h-8.204V3.145h7.85q1.935 0 3.326.627 1.416.627 2.126 1.744.736 1.117.736 2.535 0 1.663-.9 2.78-.872 1.118-2.344 1.581m-6.978-1.417h3.489q1.363 0 2.099-.6.736-.627.736-1.771 0-1.146-.736-1.772-.735-.627-2.1-.627H76.94zm3.843 8.068q1.39 0 2.154-.654.79-.654.79-1.853 0-1.227-.818-1.908-.817-.71-2.207-.71h-3.762v5.125zm22.068-.518h-7.578l-1.254 3.626h-4.007l6.842-19.053h4.443l6.842 19.053h-4.035zm-1.036-3.052-2.753-7.96-2.753 7.96zm21.092 3.052h-7.577l-1.254 3.626h-4.007l6.842-19.053h4.443l6.841 19.053h-4.034zm-1.036-3.052-2.753-7.96-2.753 7.96zm21.061-11.671-3.829 12.604-3.107-.833 2.96-12.836zm-6.954 18.37q-1-.268-1.497-1.05-.462-.801-.215-1.723.246-.921 1.041-1.358.828-.455 1.828-.187.973.261 1.437 1.062.47.775.222 1.697a2.18 2.18 0 0 1-1.048 1.384q-.794.436-1.768.175" fill="#4A3830"/></svg>