<svg width="24" height="24" viewBox="0 0 24 24" fill="none" xmlns="http://www.w3.org/2000/svg">
<g clip-path="url(#clip0_187_47301)">
<path d="M21.8725 0.90564H2.13063C1.45442 0.90564 0.90625 1.45381 0.90625 2.13001V21.8719C0.90625 22.5481 1.45442 23.0963 2.13063 23.0963H21.8725C22.5487 23.0963 23.0969 22.5481 23.0969 21.8719V2.13001C23.0969 1.45381 22.5487 0.90564 21.8725 0.90564Z" fill="#3D5A98"/>
<path d="M16.2159 23.0944V14.5012H19.0997L19.5309 11.1525H16.2159V9.01498C16.2159 8.04561 16.4859 7.38373 17.8753 7.38373H19.6491V4.38373C18.7901 4.29438 17.927 4.25182 17.0634 4.25623C14.5097 4.25623 12.7509 5.81248 12.7509 8.68311V11.1525H9.86719V14.5012H12.7509V23.0944H16.2159Z" fill="white"/>
</g>
<defs>
<clipPath id="clip0_187_47301">
<rect width="24" height="24" fill="white"/>
</clipPath>
</defs>
</svg>
