<svg width="270" height="45" viewBox="0 0 270 45" fill="none" xmlns="http://www.w3.org/2000/svg">
<path d="M37.3792 19.1225L35.6926 26.9931H42.1834V33.3817H34.3127L32.4728 42.0701H25.6754L27.5153 33.3817H18.2136L16.3737 42.0701H9.62744L11.4673 33.3817H3.75V26.9931H12.8473L14.5338 19.1225H6.8676V12.734H15.9138L17.7025 4.25H24.4488L22.66 12.734H31.9617L33.7505 4.25H40.5479L38.7591 12.734H45.301V19.1225H37.3792ZM30.5818 19.1225H21.2801L19.5935 26.9931H28.8952L30.5818 19.1225Z" fill="white"/>
<path d="M72.7972 36.0393H88.8452V42.0701H64.5177V36.5504L80.4634 12.4273H64.5177V6.39654H88.8452V11.9162L72.7972 36.0393Z" fill="white"/>
<path d="M112.517 42.4278C109.178 42.4278 106.111 41.6442 103.318 40.0768C100.524 38.5095 98.309 36.346 96.6735 33.5861C95.038 30.7922 94.2203 27.6405 94.2203 24.1311C94.2203 20.6557 95.038 17.5381 96.6735 14.7783C98.309 11.9844 100.524 9.80376 103.318 8.23644C106.111 6.66912 109.178 5.88546 112.517 5.88546C115.89 5.88546 118.957 6.66912 121.717 8.23644C124.51 9.80376 126.708 11.9844 128.309 14.7783C129.945 17.5381 130.763 20.6557 130.763 24.1311C130.763 27.6405 129.945 30.7922 128.309 33.5861C126.708 36.346 124.51 38.5095 121.717 40.0768C118.923 41.6442 115.856 42.4278 112.517 42.4278ZM112.517 36.0393C114.664 36.0393 116.555 35.5623 118.19 34.6083C119.826 33.6202 121.103 32.2232 122.023 30.4174C122.943 28.6116 123.403 26.5161 123.403 24.1311C123.403 21.746 122.943 19.6676 122.023 17.8959C121.103 16.0901 119.826 14.7101 118.19 13.7561C116.555 12.8021 114.664 12.3251 112.517 12.3251C110.371 12.3251 108.462 12.8021 106.793 13.7561C105.157 14.7101 103.88 16.0901 102.96 17.8959C102.04 19.6676 101.58 21.746 101.58 24.1311C101.58 26.5161 102.04 28.6116 102.96 30.4174C103.88 32.2232 105.157 33.6202 106.793 34.6083C108.462 35.5623 110.371 36.0393 112.517 36.0393Z" fill="white"/>
<path d="M157.347 23.7733C159.357 24.1481 161.01 25.1533 162.304 26.7887C163.599 28.4242 164.247 30.2981 164.247 32.4106C164.247 34.3187 163.77 36.0052 162.816 37.4703C161.896 38.9014 160.55 40.0257 158.778 40.8435C157.006 41.6612 154.911 42.0701 152.492 42.0701H137.108V6.39654H151.827C154.246 6.39654 156.325 6.78837 158.062 7.57203C159.834 8.35569 161.163 9.446 162.049 10.843C162.969 12.2399 163.429 13.8243 163.429 15.596C163.429 17.6744 162.867 19.4121 161.742 20.8091C160.652 22.206 159.187 23.1941 157.347 23.7733ZM144.263 21.1157H150.805C152.509 21.1157 153.82 20.7409 154.74 19.9913C155.66 19.2077 156.12 18.1003 156.12 16.6693C156.12 15.2383 155.66 14.1309 154.74 13.3473C153.82 12.5636 152.509 12.1718 150.805 12.1718H144.263V21.1157ZM151.469 36.2437C153.207 36.2437 154.553 35.8349 155.507 35.0171C156.495 34.1994 156.989 33.041 156.989 31.5418C156.989 30.0085 156.478 28.816 155.456 27.9642C154.434 27.0783 153.054 26.6354 151.316 26.6354H144.263V36.2437H151.469Z" fill="white"/>
<path d="M192.846 35.2727H178.637L176.287 42.0701H168.774L181.602 6.34543H189.932L202.761 42.0701H195.197L192.846 35.2727ZM190.903 29.5486L185.742 14.625L180.58 29.5486H190.903Z" fill="white"/>
<path d="M230.452 35.2727H216.244L213.893 42.0701H206.38L219.208 6.34543H227.539L240.367 42.0701H232.803L230.452 35.2727ZM228.51 29.5486L223.348 14.625L218.186 29.5486H228.51Z" fill="white"/>
<path d="M267.998 7.66596L260.819 31.2984L254.994 29.7376L260.543 5.66857L267.998 7.66596ZM254.959 42.1095C253.708 41.7744 252.773 41.1181 252.153 40.1407C251.575 39.1392 251.44 38.0625 251.749 36.9106C252.057 35.7587 252.708 34.9101 253.701 34.3648C254.735 33.7954 255.878 33.6783 257.128 34.0134C258.346 34.3397 259.244 35.0035 259.822 36.0051C260.409 36.9737 260.549 38.0339 260.24 39.1858C259.931 40.3377 259.276 41.2027 258.275 41.781C257.282 42.3263 256.177 42.4358 254.959 42.1095Z" fill="white"/>
</svg>
